<svg xmlns="http://www.w3.org/2000/svg" xmlns:xlink="http://www.w3.org/1999/xlink" width="40" zoomAndPan="magnify" viewBox="0 0 30 30.000001" height="40" preserveAspectRatio="xMidYMid meet" version="1.0"><defs><clipPath id="ae6223caef"><path d="M 9 1.453125 L 15 1.453125 L 15 14 L 9 14 Z M 9 1.453125 " clip-rule="nonzero"/></clipPath><clipPath id="b745ab41e0"><path d="M 2.421875 8 L 8 8 L 8 14 L 2.421875 14 Z M 2.421875 8 " clip-rule="nonzero"/></clipPath><clipPath id="eb5ef8c4a7"><path d="M 15 1.453125 L 21 1.453125 L 21 14 L 15 14 Z M 15 1.453125 " clip-rule="nonzero"/></clipPath><clipPath id="998145e5e0"><path d="M 22 8 L 27.824219 8 L 27.824219 14 L 22 14 Z M 22 8 " clip-rule="nonzero"/></clipPath><clipPath id="3a3e046d8c"><path d="M 9 15 L 15 15 L 15 27.582031 L 9 27.582031 Z M 9 15 " clip-rule="nonzero"/></clipPath><clipPath id="4dbf06474f"><path d="M 2.421875 15 L 8 15 L 8 21 L 2.421875 21 Z M 2.421875 15 " clip-rule="nonzero"/></clipPath><clipPath id="8d6f3e8cbd"><path d="M 15 15 L 21 15 L 21 27.582031 L 15 27.582031 Z M 15 15 " clip-rule="nonzero"/></clipPath><clipPath id="a02e1442ba"><path d="M 22 15 L 27.824219 15 L 27.824219 21 L 22 21 Z M 22 15 " clip-rule="nonzero"/></clipPath></defs><g clip-path="url(#ae6223caef)"><path fill="#ffffff" d="M 9.054688 6.960938 C 9.054688 6.945312 9.0625 6.933594 9.070312 6.921875 C 10.804688 5.082031 12.546875 3.328125 14.261719 1.464844 C 14.261719 5.5 14.289062 9.386719 14.261719 13.25 C 14.261719 13.269531 14.222656 13.304688 14.207031 13.316406 C 13.972656 13.507812 13.84375 13.667969 13.625 13.875 C 13.613281 13.886719 13.597656 13.894531 13.582031 13.894531 C 13.261719 13.894531 10.417969 13.890625 9.808594 13.894531 C 9.628906 13.898438 9.625 13.898438 9.625 13.898438 L 9.046875 13.304688 Z M 9.054688 6.960938 " fill-opacity="1" fill-rule="nonzero"/></g><g clip-path="url(#b745ab41e0)"><path fill="#ffffff" d="M 7.835938 8.253906 C 7.835938 9.925781 7.828125 11.664062 7.828125 13.304688 L 7.257812 13.898438 C 5.660156 13.898438 4.050781 13.894531 2.460938 13.894531 Z M 7.835938 8.253906 " fill-opacity="1" fill-rule="nonzero"/></g><g clip-path="url(#eb5ef8c4a7)"><path fill="#ffffff" d="M 20.796875 6.945312 C 20.796875 6.929688 20.789062 6.917969 20.78125 6.90625 C 19.046875 5.066406 17.304688 3.3125 15.589844 1.453125 C 15.589844 5.484375 15.5625 9.371094 15.589844 13.234375 C 15.589844 13.253906 15.628906 13.289062 15.644531 13.300781 C 15.878906 13.492188 16.007812 13.652344 16.226562 13.859375 C 16.238281 13.871094 16.253906 13.878906 16.269531 13.882812 C 16.589844 13.882812 19.433594 13.875 20.042969 13.882812 C 20.222656 13.882812 20.226562 13.882812 20.226562 13.882812 L 20.804688 13.289062 Z M 20.796875 6.945312 " fill-opacity="1" fill-rule="nonzero"/></g><g clip-path="url(#998145e5e0)"><path fill="#ffffff" d="M 22.015625 8.238281 C 22.015625 9.910156 22.023438 11.648438 22.023438 13.289062 L 22.59375 13.882812 C 24.191406 13.882812 25.800781 13.878906 27.390625 13.878906 Z M 22.015625 8.238281 " fill-opacity="1" fill-rule="nonzero"/></g><g clip-path="url(#3a3e046d8c)"><path fill="#ffffff" d="M 9.058594 22.085938 C 9.058594 22.101562 9.066406 22.117188 9.074219 22.125 C 10.8125 23.964844 12.554688 25.71875 14.265625 27.582031 C 14.265625 23.546875 14.292969 19.660156 14.265625 15.796875 C 14.265625 15.777344 14.226562 15.742188 14.210938 15.730469 C 13.976562 15.539062 13.847656 15.378906 13.628906 15.175781 C 13.617188 15.160156 13.601562 15.152344 13.585938 15.152344 C 13.265625 15.152344 10.421875 15.15625 9.8125 15.152344 C 9.632812 15.148438 9.632812 15.148438 9.632812 15.148438 L 9.054688 15.746094 Z M 9.058594 22.085938 " fill-opacity="1" fill-rule="nonzero"/></g><g clip-path="url(#4dbf06474f)"><path fill="#ffffff" d="M 7.839844 20.796875 C 7.839844 19.125 7.832031 17.382812 7.832031 15.746094 L 7.261719 15.148438 C 5.664062 15.148438 4.054688 15.152344 2.464844 15.152344 Z M 7.839844 20.796875 " fill-opacity="1" fill-rule="nonzero"/></g><g clip-path="url(#8d6f3e8cbd)"><path fill="#ffffff" d="M 20.796875 22.085938 C 20.796875 22.101562 20.789062 22.117188 20.78125 22.125 C 19.046875 23.964844 17.304688 25.71875 15.589844 27.582031 C 15.589844 23.546875 15.5625 19.660156 15.589844 15.796875 C 15.589844 15.777344 15.628906 15.742188 15.644531 15.730469 C 15.878906 15.539062 16.007812 15.378906 16.226562 15.175781 C 16.238281 15.160156 16.253906 15.152344 16.269531 15.152344 C 16.589844 15.152344 19.433594 15.15625 20.042969 15.152344 C 20.222656 15.148438 20.226562 15.148438 20.226562 15.148438 L 20.804688 15.746094 Z M 20.796875 22.085938 " fill-opacity="1" fill-rule="nonzero"/></g><g clip-path="url(#a02e1442ba)"><path fill="#ffffff" d="M 22.015625 20.796875 C 22.015625 19.125 22.023438 17.382812 22.023438 15.746094 L 22.59375 15.148438 C 24.191406 15.148438 25.800781 15.152344 27.390625 15.152344 Z M 22.015625 20.796875 " fill-opacity="1" fill-rule="nonzero"/></g></svg>